<svg width="68" height="40" viewBox="0 0 68 40" fill="none" xmlns="http://www.w3.org/2000/svg">
  <circle cx="27" cy="10" r="10" fill="#EA001B" />
  <circle cx="43" cy="10" r="10" fill="#F79F1A" />
  <path
    d="M0.346058 29.5455H1.71254L4.9256 37.3935H5.0364L8.24947 29.5455H9.61594V39H8.54492V31.8168H8.45259L5.49805 39H4.46396L1.50941 31.8168H1.41708V39H0.346058V29.5455ZM13.8504 39.1662C13.4011 39.1662 12.9933 39.0816 12.627 38.9123C12.2608 38.7399 11.97 38.4922 11.7545 38.169C11.5391 37.8428 11.4314 37.4489 11.4314 36.9872C11.4314 36.581 11.5114 36.2517 11.6714 35.9993C11.8315 35.7438 12.0454 35.5438 12.3131 35.3991C12.5809 35.2545 12.8763 35.1468 13.1995 35.076C13.5257 35.0021 13.8535 34.9437 14.1828 34.9006C14.6137 34.8452 14.963 34.8036 15.2307 34.7759C15.5016 34.7451 15.6985 34.6944 15.8216 34.6236C15.9478 34.5528 16.0109 34.4297 16.0109 34.2543V34.2173C16.0109 33.7618 15.8863 33.4079 15.637 33.1555C15.3908 32.9032 15.0168 32.777 14.5152 32.777C13.9951 32.777 13.5873 32.8909 13.2918 33.1186C12.9964 33.3464 12.7886 33.5895 12.6686 33.848L11.6345 33.4787C11.8192 33.0478 12.0654 32.7124 12.3731 32.4723C12.684 32.2292 13.0225 32.0599 13.3888 31.9645C13.7581 31.866 14.1212 31.8168 14.4782 31.8168C14.706 31.8168 14.9676 31.8445 15.2631 31.8999C15.5616 31.9522 15.8493 32.0614 16.1263 32.2276C16.4064 32.3938 16.6388 32.6446 16.8234 32.9801C17.0081 33.3156 17.1004 33.7649 17.1004 34.3281V39H16.0109V38.0398H15.9555C15.8817 38.1937 15.7586 38.3583 15.5862 38.5337C15.4139 38.7092 15.1846 38.8584 14.8983 38.9815C14.6121 39.1046 14.2628 39.1662 13.8504 39.1662ZM14.0166 38.1875C14.4475 38.1875 14.8106 38.1029 15.1061 37.9336C15.4046 37.7643 15.6293 37.5458 15.7801 37.2781C15.934 37.0103 16.0109 36.7287 16.0109 36.4332V35.4361C15.9648 35.4915 15.8632 35.5423 15.7062 35.5884C15.5523 35.6315 15.3738 35.67 15.1707 35.7038C14.9707 35.7346 14.7752 35.7623 14.5844 35.7869C14.3967 35.8085 14.2443 35.8269 14.1274 35.8423C13.8443 35.8793 13.5796 35.9393 13.3334 36.0224C13.0902 36.1024 12.8933 36.224 12.7425 36.3871C12.5947 36.5471 12.5209 36.7656 12.5209 37.0426C12.5209 37.4212 12.6609 37.7074 12.941 37.9013C13.2241 38.0921 13.5827 38.1875 14.0166 38.1875ZM24.1117 33.4972L23.133 33.7741C23.0714 33.611 22.9806 33.4525 22.8606 33.2987C22.7437 33.1417 22.5836 33.0124 22.3805 32.9109C22.1774 32.8093 21.9173 32.7585 21.6003 32.7585C21.1664 32.7585 20.8047 32.8585 20.5154 33.0586C20.2292 33.2556 20.0861 33.5064 20.0861 33.8111C20.0861 34.0819 20.1846 34.2958 20.3816 34.4528C20.5785 34.6097 20.8863 34.7405 21.3049 34.8452L22.3574 35.1037C22.9914 35.2576 23.4638 35.493 23.7747 35.81C24.0855 36.1239 24.2409 36.5286 24.2409 37.0241C24.2409 37.4304 24.124 37.7936 23.8901 38.1136C23.6593 38.4337 23.3361 38.6861 22.9206 38.8707C22.5051 39.0554 22.022 39.1477 21.4711 39.1477C20.7478 39.1477 20.1492 38.9908 19.6752 38.6768C19.2013 38.3629 18.9012 37.9044 18.775 37.3011L19.8091 37.0426C19.9076 37.4242 20.0938 37.7105 20.3677 37.9013C20.6447 38.0921 21.0063 38.1875 21.4526 38.1875C21.9604 38.1875 22.3636 38.0798 22.6621 37.8643C22.9637 37.6458 23.1145 37.3842 23.1145 37.0795C23.1145 36.8333 23.0284 36.6271 22.856 36.4609C22.6837 36.2917 22.419 36.1655 22.062 36.0824L20.8801 35.8054C20.2308 35.6515 19.7537 35.413 19.449 35.0898C19.1474 34.7636 18.9966 34.3558 18.9966 33.8665C18.9966 33.4664 19.109 33.1125 19.3336 32.8047C19.5614 32.4969 19.8707 32.2553 20.2615 32.0799C20.6555 31.9045 21.1017 31.8168 21.6003 31.8168C22.302 31.8168 22.8529 31.9706 23.253 32.2784C23.6562 32.5862 23.9424 32.9924 24.1117 33.4972ZM28.9648 31.9091V32.8324H25.29V31.9091H28.9648ZM26.3611 30.2102H27.4506V36.9688C27.4506 37.2765 27.4952 37.5073 27.5844 37.6612C27.6768 37.812 27.7937 37.9136 27.9353 37.9659C28.0799 38.0152 28.2323 38.0398 28.3923 38.0398C28.5123 38.0398 28.6108 38.0336 28.6878 38.0213C28.7647 38.0059 28.8263 37.9936 28.8724 37.9844L29.094 38.9631C29.0202 38.9908 28.9171 39.0185 28.7847 39.0462C28.6524 39.0769 28.4846 39.0923 28.2815 39.0923C27.9738 39.0923 27.6721 39.0262 27.3767 38.8938C27.0843 38.7615 26.8412 38.5599 26.6473 38.2891C26.4565 38.0182 26.3611 37.6766 26.3611 37.2642V30.2102ZM33.5004 39.1477C32.8172 39.1477 32.2278 38.9969 31.7323 38.6953C31.2399 38.3906 30.8598 37.9659 30.5921 37.4212C30.3274 36.8733 30.195 36.2363 30.195 35.5099C30.195 34.7836 30.3274 34.1435 30.5921 33.5895C30.8598 33.0324 31.2322 32.5985 31.7093 32.2876C32.1894 31.9737 32.7495 31.8168 33.3896 31.8168C33.759 31.8168 34.1237 31.8783 34.4838 32.0014C34.8438 32.1245 35.1716 32.3246 35.4671 32.6016C35.7625 32.8755 35.998 33.2386 36.1734 33.6911C36.3488 34.1435 36.4365 34.7005 36.4365 35.3622V35.8239H30.9706V34.8821H35.3286C35.3286 34.482 35.2486 34.125 35.0885 33.8111C34.9316 33.4972 34.7069 33.2494 34.4145 33.0678C34.1252 32.8862 33.7836 32.7955 33.3896 32.7955C32.9557 32.7955 32.5802 32.9032 32.2632 33.1186C31.9493 33.331 31.7077 33.608 31.5384 33.9496C31.3692 34.2912 31.2845 34.6574 31.2845 35.0483V35.6761C31.2845 36.2116 31.3769 36.6656 31.5615 37.038C31.7493 37.4073 32.0093 37.6889 32.3417 37.8828C32.6741 38.0736 33.0603 38.169 33.5004 38.169C33.7867 38.169 34.0452 38.129 34.276 38.049C34.5099 37.9659 34.7115 37.8428 34.8808 37.6797C35.05 37.5135 35.1808 37.3073 35.2732 37.0611L36.3257 37.3565C36.2149 37.7135 36.0287 38.0275 35.7671 38.2983C35.5055 38.5661 35.1824 38.7753 34.7977 38.9261C34.413 39.0739 33.9806 39.1477 33.5004 39.1477ZM38.0938 39V31.9091H39.1464V32.9801H39.2203C39.3495 32.6293 39.5834 32.3446 39.922 32.1261C40.2605 31.9076 40.6421 31.7983 41.0669 31.7983C41.1469 31.7983 41.2469 31.7998 41.3669 31.8029C41.4869 31.806 41.5777 31.8106 41.6393 31.8168V32.9247C41.6024 32.9155 41.5177 32.9016 41.3854 32.8832C41.2561 32.8616 41.1192 32.8509 40.9745 32.8509C40.6298 32.8509 40.3221 32.9232 40.0512 33.0678C39.7835 33.2094 39.5711 33.4064 39.4142 33.6587C39.2603 33.908 39.1833 34.1927 39.1833 34.5128V39H38.0938ZM45.5956 39.1477C44.9308 39.1477 44.3584 38.9908 43.8783 38.6768C43.3982 38.3629 43.0289 37.9305 42.7703 37.3796C42.5118 36.8287 42.3825 36.1993 42.3825 35.4915C42.3825 34.7713 42.5149 34.1358 42.7796 33.5849C43.0473 33.0309 43.4197 32.5985 43.8968 32.2876C44.3769 31.9737 44.937 31.8168 45.5771 31.8168C46.0757 31.8168 46.5251 31.9091 46.9252 32.0938C47.3253 32.2784 47.653 32.5369 47.9085 32.8693C48.1639 33.2017 48.3224 33.5895 48.384 34.0327H47.2945C47.2114 33.7095 47.0267 33.4233 46.7405 33.174C46.4574 32.9216 46.0757 32.7955 45.5956 32.7955C45.1709 32.7955 44.7985 32.9062 44.4784 33.1278C44.1614 33.3464 43.9137 33.6557 43.7352 34.0558C43.5597 34.4528 43.472 34.919 43.472 35.4545C43.472 36.0024 43.5582 36.4794 43.7306 36.8857C43.906 37.2919 44.1522 37.6074 44.4692 37.832C44.7893 38.0567 45.1647 38.169 45.5956 38.169C45.8788 38.169 46.1357 38.1198 46.3666 38.0213C46.5974 37.9228 46.7928 37.7812 46.9529 37.5966C47.1129 37.4119 47.2268 37.1903 47.2945 36.9318H48.384C48.3224 37.3504 48.1701 37.7274 47.9269 38.0629C47.6869 38.3952 47.3683 38.6599 46.9713 38.8569C46.5774 39.0508 46.1188 39.1477 45.5956 39.1477ZM52.0633 39.1662C51.614 39.1662 51.2062 39.0816 50.8399 38.9123C50.4737 38.7399 50.1829 38.4922 49.9674 38.169C49.752 37.8428 49.6443 37.4489 49.6443 36.9872C49.6443 36.581 49.7243 36.2517 49.8843 35.9993C50.0444 35.7438 50.2583 35.5438 50.526 35.3991C50.7938 35.2545 51.0892 35.1468 51.4124 35.076C51.7386 35.0021 52.0664 34.9437 52.3957 34.9006C52.8266 34.8452 53.1759 34.8036 53.4436 34.7759C53.7145 34.7451 53.9114 34.6944 54.0345 34.6236C54.1607 34.5528 54.2238 34.4297 54.2238 34.2543V34.2173C54.2238 33.7618 54.0992 33.4079 53.8499 33.1555C53.6037 32.9032 53.2297 32.777 52.7281 32.777C52.2079 32.777 51.8002 32.8909 51.5047 33.1186C51.2093 33.3464 51.0015 33.5895 50.8815 33.848L49.8474 33.4787C50.032 33.0478 50.2783 32.7124 50.586 32.4723C50.8969 32.2292 51.2354 32.0599 51.6017 31.9645C51.971 31.866 52.3341 31.8168 52.6911 31.8168C52.9189 31.8168 53.1805 31.8445 53.4759 31.8999C53.7745 31.9522 54.0622 32.0614 54.3392 32.2276C54.6193 32.3938 54.8517 32.6446 55.0363 32.9801C55.221 33.3156 55.3133 33.7649 55.3133 34.3281V39H54.2238V38.0398H54.1684C54.0945 38.1937 53.9714 38.3583 53.7991 38.5337C53.6267 38.7092 53.3975 38.8584 53.1112 38.9815C52.825 39.1046 52.4757 39.1662 52.0633 39.1662ZM52.2295 38.1875C52.6604 38.1875 53.0235 38.1029 53.319 37.9336C53.6175 37.7643 53.8422 37.5458 53.993 37.2781C54.1469 37.0103 54.2238 36.7287 54.2238 36.4332V35.4361C54.1776 35.4915 54.0761 35.5423 53.9191 35.5884C53.7652 35.6315 53.5867 35.67 53.3836 35.7038C53.1836 35.7346 52.9881 35.7623 52.7973 35.7869C52.6096 35.8085 52.4572 35.8269 52.3403 35.8423C52.0571 35.8793 51.7925 35.9393 51.5463 36.0224C51.3031 36.1024 51.1061 36.224 50.9553 36.3871C50.8076 36.5471 50.7338 36.7656 50.7338 37.0426C50.7338 37.4212 50.8738 37.7074 51.1539 37.9013C51.437 38.0921 51.7955 38.1875 52.2295 38.1875ZM57.3018 39V31.9091H58.3544V32.9801H58.4283C58.5575 32.6293 58.7914 32.3446 59.13 32.1261C59.4685 31.9076 59.8501 31.7983 60.2749 31.7983C60.3549 31.7983 60.4549 31.7998 60.5749 31.8029C60.695 31.806 60.7857 31.8106 60.8473 31.8168V32.9247C60.8104 32.9155 60.7257 32.9016 60.5934 32.8832C60.4641 32.8616 60.3272 32.8509 60.1825 32.8509C59.8378 32.8509 59.5301 32.9232 59.2592 33.0678C58.9915 33.2094 58.7791 33.4064 58.6222 33.6587C58.4683 33.908 58.3913 34.1927 58.3913 34.5128V39H57.3018ZM64.6005 39.1477C64.0096 39.1477 63.4879 38.9985 63.0355 38.6999C62.5831 38.3983 62.2292 37.9736 61.9737 37.4258C61.7183 36.8749 61.5906 36.224 61.5906 35.473C61.5906 34.7282 61.7183 34.0819 61.9737 33.5341C62.2292 32.9863 62.5846 32.5631 63.0401 32.2646C63.4956 31.966 64.0219 31.8168 64.619 31.8168C65.0806 31.8168 65.4453 31.8937 65.7131 32.0476C65.9839 32.1984 66.1901 32.3707 66.3317 32.5646C66.4763 32.7554 66.5887 32.9124 66.6687 33.0355H66.761V29.5455H67.8505V39H66.7979V37.9105H66.6687C66.5887 38.0398 66.4748 38.2029 66.3271 38.3999C66.1793 38.5937 65.9685 38.7676 65.6946 38.9215C65.4207 39.0723 65.056 39.1477 64.6005 39.1477ZM64.7482 38.169C65.1853 38.169 65.5546 38.0552 65.8562 37.8274C66.1578 37.5966 66.3871 37.2781 66.544 36.8718C66.701 36.4625 66.7795 35.9901 66.7795 35.4545C66.7795 34.9252 66.7025 34.462 66.5487 34.065C66.3948 33.6649 66.167 33.354 65.8654 33.1325C65.5638 32.9078 65.1914 32.7955 64.7482 32.7955C64.2866 32.7955 63.9019 32.9139 63.5941 33.1509C63.2894 33.3848 63.0601 33.7034 62.9062 34.1065C62.7554 34.5066 62.68 34.956 62.68 35.4545C62.68 35.9593 62.757 36.4179 62.9109 36.8303C63.0678 37.2396 63.2987 37.5658 63.6033 37.8089C63.9111 38.049 64.2927 38.169 64.7482 38.169Z"
    fill="white" />
</svg>